<svg version="1.1" id="Layer_1" xmlns="http://www.w3.org/2000/svg" xmlns:xlink="http://www.w3.org/1999/xlink" x="0px" y="0px"
	 width="100%" viewBox="0 0 1024 544" enable-background="new 0 0 1024 544" xml:space="preserve">
<path fill="#000000" opacity="1.000000" stroke="none" 
	d="
M823.012207,376.359314 
	C819.350525,376.351410 816.181702,376.444000 813.022217,376.313324 
	C807.958557,376.103821 805.084717,373.254913 804.714294,368.220276 
	C804.616760,366.893982 804.658325,365.556488 804.657959,364.224121 
	C804.643860,315.754730 804.626465,267.285339 804.625610,218.815933 
	C804.625427,209.314056 807.259216,206.706711 816.794556,206.707764 
	C840.446228,206.710373 864.111450,206.234177 887.745972,206.878387 
	C912.848938,207.562576 935.070374,215.855225 952.024536,235.310364 
	C963.092102,248.010605 968.907166,263.106476 970.779602,279.698730 
	C973.414001,303.042786 969.409973,324.901245 954.799866,343.926270 
	C938.486755,365.168884 916.176392,375.207733 889.961243,376.152893 
	C867.836853,376.950592 845.661926,376.344482 823.012207,376.359314 
M925.949829,308.435944 
	C928.269958,300.000854 928.858337,291.518616 927.725281,282.772278 
	C925.118408,262.648407 912.605591,248.518982 892.967163,244.712860 
	C878.955566,241.997269 864.731018,243.776382 850.605225,243.440598 
	C847.160461,243.358719 847.290405,246.012634 847.290405,248.402267 
	C847.290405,277.220428 847.344971,306.038757 847.233826,334.856476 
	C847.219543,338.565277 848.459351,339.818970 852.146912,339.755920 
	C862.971436,339.570923 873.806702,339.897156 884.627319,339.617401 
	C905.013916,339.090363 919.116943,328.520935 925.949829,308.435944 
z"/>
<path fill="#000000" opacity="1.000000" stroke="none" 
	d="
M177.005157,371.172485 
	C165.749588,365.157013 158.630432,355.776917 153.490631,344.930756 
	C141.653580,319.951965 130.149475,294.815247 118.543053,269.727417 
	C114.375359,260.718781 109.259232,252.738739 98.825317,249.963516 
	C96.685440,249.394333 94.559082,249.301971 92.397385,249.298889 
	C83.067482,249.285599 73.736031,249.390411 64.408165,249.250443 
	C58.060131,249.155197 54.827023,245.921234 54.724392,239.662186 
	C54.596027,231.833801 54.598980,224.000381 54.718166,216.171783 
	C54.803326,210.578384 57.433044,206.912766 62.470924,206.917389 
	C79.599525,206.933075 96.817963,205.223221 113.838448,208.087967 
	C131.916763,211.130768 143.211548,222.852936 150.625427,238.777725 
	C161.307510,261.722534 171.714996,284.795074 182.304138,307.783417 
	C184.392380,312.316833 186.500748,316.879852 189.073517,321.143372 
	C194.880280,330.766144 203.569122,334.856415 214.790421,334.005005 
	C218.478683,333.725159 218.480927,331.597687 218.482681,328.896423 
	C218.502884,297.741974 218.576645,266.587555 218.627991,235.433121 
	C218.638428,229.102142 218.552719,222.770401 218.624069,216.440292 
	C218.697662,209.913422 221.544937,206.895615 228.028946,206.757431 
	C235.522842,206.597748 243.024109,206.625885 250.519455,206.744217 
	C256.669220,206.841309 259.577881,209.741577 260.087616,215.925812 
	C260.169525,216.919617 260.137756,217.923843 260.137482,218.923248 
	C260.123291,266.739227 260.107819,314.555176 260.086395,362.371155 
	C260.085663,364.036530 260.115601,365.709839 259.973389,367.365906 
	C259.438660,373.593079 257.253906,376.109650 250.957260,376.500549 
	C237.483475,377.336945 223.984283,376.890198 210.495041,376.720032 
	C206.666092,376.671753 202.836792,376.367615 199.010910,376.419678 
	C191.346725,376.524017 184.176102,374.689270 177.005157,371.172485 
z"/>
<path fill="#000000" opacity="1.000000" stroke="none" 
	d="
M415.148865,239.941315 
	C432.537201,281.260406 449.785645,322.226898 467.016418,363.200806 
	C467.595459,364.577820 468.079254,366.007751 468.464111,367.451202 
	C469.750000,372.274078 467.432373,376.076416 462.539948,376.201080 
	C452.552277,376.455597 442.551483,376.378113 432.559967,376.209229 
	C428.580322,376.141968 426.373413,373.362671 424.953552,369.907959 
	C422.042389,362.824585 419.005280,355.789368 416.274414,348.637177 
	C415.097656,345.555298 413.405731,344.238464 410.011963,344.252869 
	C384.190948,344.362671 358.369049,344.365021 332.548004,344.260101 
	C329.365234,344.247192 327.682312,345.389771 326.603882,348.304474 
	C324.120300,355.016602 321.455933,361.662872 318.797699,368.308990 
	C316.212555,374.772614 313.997955,376.294250 307.175232,376.329346 
	C299.345673,376.369659 291.515686,376.371368 283.686096,376.336548 
	C274.730347,376.296692 272.205627,372.782257 275.630096,364.360229 
	C283.467957,345.084076 291.536835,325.901642 299.549438,306.696808 
	C309.742157,282.266479 320.347076,258.000061 330.088654,233.391571 
	C341.670105,204.135300 375.693848,201.979370 393.917877,212.078308 
	C400.643890,215.805588 405.962646,220.984665 409.509796,227.826248 
	C411.500244,231.665375 413.184174,235.663422 415.148865,239.941315 
M395.537445,297.894958 
	C391.106445,287.139465 386.696167,276.375336 382.234222,265.632690 
	C380.450684,261.338623 378.882660,256.907928 376.627228,252.868439 
	C373.567108,247.387833 368.749847,247.475967 365.327209,252.756332 
	C364.610260,253.862381 364.062500,255.097794 363.571014,256.327271 
	C357.526184,271.449860 351.478668,286.571564 345.517487,301.727203 
	C344.827972,303.480194 343.502747,305.243500 344.444855,307.296967 
	C362.469635,307.296967 380.393311,307.296967 398.396515,307.296967 
	C398.292328,303.679840 396.701691,301.255920 395.537445,297.894958 
z"/>
<path fill="#000000" opacity="1.000000" stroke="none" 
	d="
M715.999878,309.383118 
	C707.834351,309.382233 700.165222,309.520325 692.504883,309.320221 
	C688.693909,309.220673 687.046631,310.428528 687.187439,314.446259 
	C687.420715,321.103760 687.462524,327.784241 687.179382,334.437744 
	C686.998047,338.699554 688.696655,339.800018 692.712280,339.777405 
	C717.874390,339.635742 743.037659,339.690094 768.200500,339.699554 
	C777.442871,339.703033 780.164429,342.372314 780.219666,351.494263 
	C780.252014,356.826263 780.348267,362.165649 780.124023,367.489441 
	C779.867859,373.569489 777.046570,376.299408 771.002441,376.307373 
	C732.008484,376.358887 693.014404,376.360535 654.020325,376.322327 
	C647.720337,376.316162 644.681946,373.425201 644.674011,367.223419 
	C644.609680,316.897827 644.601868,266.572113 644.647522,216.246506 
	C644.653259,209.912170 647.849731,206.747772 654.294006,206.737122 
	C692.788025,206.673538 731.282288,206.678864 769.776306,206.740997 
	C776.647522,206.752090 779.549194,209.444962 779.940308,216.352341 
	C780.269348,222.165619 780.214172,228.018890 779.984375,233.840851 
	C779.710388,240.784378 776.922363,243.345688 769.940002,243.355515 
	C744.610596,243.391205 719.281006,243.359253 693.951538,243.364243 
	C687.346985,243.365555 687.295837,243.425079 687.273682,250.091125 
	C687.255981,255.423553 687.262878,260.756104 687.269897,266.088593 
	C687.278687,272.792175 687.283508,272.807312 693.799866,272.806061 
	C713.463562,272.802307 733.127197,272.773926 752.790894,272.778717 
	C764.016052,272.781464 766.248169,275.022156 766.268555,286.193268 
	C766.277039,290.859222 766.358582,295.527069 766.255066,300.190674 
	C766.115662,306.472778 763.262512,309.334595 756.993286,309.365021 
	C743.495850,309.430481 729.997742,309.383545 715.999878,309.383118 
z"/>
<path fill="#000000" opacity="1.000000" stroke="none" 
	d="
M621.924805,357.048035 
	C621.763672,361.518402 621.811951,365.528931 621.378723,369.486755 
	C620.890076,373.950836 618.083923,376.228943 613.590454,376.303345 
	C609.926636,376.364014 606.261414,376.356537 602.596863,376.356995 
	C567.282776,376.361389 531.968750,376.370056 496.654694,376.355682 
	C488.046173,376.352173 485.632538,373.991882 485.624237,365.400970 
	C485.582642,322.268829 485.560608,279.136719 485.589874,236.004593 
	C485.594513,229.186996 484.593048,222.386612 485.529724,215.547012 
	C486.351227,209.547989 488.887329,206.842606 494.873413,206.736801 
	C502.699982,206.598450 510.532196,206.616394 518.359497,206.732788 
	C524.979858,206.831223 528.162170,209.987518 528.213928,216.638947 
	C528.316284,229.797607 528.238892,242.957657 528.239014,256.117126 
	C528.239258,281.936340 528.351440,307.756470 528.144287,333.574005 
	C528.106018,338.337769 529.434631,339.860291 534.298401,339.815704 
	C558.783020,339.591248 583.270752,339.712677 607.757385,339.707825 
	C619.586731,339.705475 621.796326,341.862366 621.916626,353.566528 
	C621.926880,354.565887 621.920410,355.565460 621.924805,357.048035 
z"/>
</svg>
