<svg xmlns="http://www.w3.org/2000/svg" viewBox="54 205 207 173" fill="none">
  <!-- V from valed-complete-word.svg (first letter); same as MVP_V10 cognitivamvp/src/assets/img/brand/valed-v-icon.svg -->
  <path fill="#ffffff" d="M177.005157,371.172485 C165.749588,365.157013 158.630432,355.776917 153.490631,344.930756 C141.653580,319.951965 130.149475,294.815247 118.543053,269.727417 C114.375359,260.718781 109.259232,252.738739 98.825317,249.963516 C96.685440,249.394333 94.559082,249.301971 92.397385,249.298889 C83.067482,249.285599 73.736031,249.390411 64.408165,249.250443 C58.060131,249.155197 54.827023,245.921234 54.724392,239.662186 C54.596027,231.833801 54.598980,224.000381 54.718166,216.171783 C54.803326,210.578384 57.433044,206.912766 62.470924,206.917389 C79.599525,206.933075 96.817963,205.223221 113.838448,208.087967 C131.916763,211.130768 143.211548,222.852936 150.625427,238.777725 C161.307510,261.722534 171.714996,284.795074 182.304138,307.783417 C184.392380,312.316833 186.500748,316.879852 189.073517,321.143372 C194.880280,330.766144 203.569122,334.856415 214.790421,334.005005 C218.478683,333.725159 218.480927,331.597687 218.482681,328.896423 C218.502884,297.741974 218.576645,266.587555 218.627991,235.433121 C218.638428,229.102142 218.552719,222.770401 218.624069,216.440292 C218.697662,209.913422 221.544937,206.895615 228.028946,206.757431 C235.522842,206.597748 243.024109,206.625885 250.519455,206.744217 C256.669220,206.841309 259.577881,209.741577 260.087616,215.925812 C260.169525,216.919617 260.137756,217.923843 260.137482,218.923248 C260.123291,266.739227 260.107819,314.555176 260.086395,362.371155 C260.085663,364.036530 260.115601,365.709839 259.973389,367.365906 C259.438660,373.593079 257.253906,376.109650 250.957260,376.500549 C237.483475,377.336945 223.984283,376.890198 210.495041,376.720032 C206.666092,376.671753 202.836792,376.367615 199.010910,376.419678 C191.346725,376.524017 184.176102,374.689270 177.005157,371.172485 z"/>
</svg>
